<?xml version="1.0" encoding="utf-8"?>
<!-- Generator: Adobe Illustrator 25.3.0, SVG Export Plug-In . SVG Version: 6.00 Build 0)  -->
<svg version="1.1" id="Layer_1" xmlns="http://www.w3.org/2000/svg" xmlns:xlink="http://www.w3.org/1999/xlink" x="0px" y="0px"
	 viewBox="0 0 20 20" style="enable-background:new 0 0 20 20;" xml:space="preserve">
<style type="text/css">
	.st0{fill:#937F74;}
	.st1{fill:#A5706F;}
	.st2{fill:#F4D6C5;}
	.st3{fill:#D08C87;}
	.st4{fill:#F1EFE2;}
	.st5{fill:#FFFFFF;}
	.st6{fill:#457545;}
	.st7{fill:#F49519;}
	.st8{fill:#2A2AD1;}
	.st9{fill:#FCE9E0;}
</style>
<g>
	<polygon class="st0" points="9.7,3.7 9.6,4.2 9.8,4.2 9.7,3.7 9.7,3.7 	"/>
	<path class="st1" d="M9.2,4.2c0.1-0.1,0.4-0.1,0.6-0.1c0.2,0,0.3,0.1,0.4,0.1s0,0.1,0,0.1s0,0.1,0,0.1c0,0,0,0.1,0,0.1l-1.1,0
		c0,0-0.1,0,0-0.1s0.1-0.1,0.1-0.1C9.2,4.3,9.2,4.2,9.2,4.2z"/>
	<path class="st2" d="M7.3,7.1c0,0,0.1-1.2,0.6-1.7s0.9-0.8,1.6-0.8c0.8,0,1.4,0.4,1.8,1s0.7,1.7,0.7,1.7L7.3,7.1z"/>
	<path class="st3" d="M7.2,7.6c0,0-0.1-0.2,0-0.4C7.4,7,8.2,6.7,9.2,6.7s1.5,0,2,0.1c0.5,0.1,0.9,0.3,1,0.4c0.1,0.1,0.1,0.4,0.1,0.4
		l0,2c0,0-2.4-0.5-3.1-0.4C8.4,9.2,7.2,9.6,7.2,9.6L7.2,7.6z"/>
	<path class="st1" d="M7.2,8.3c0,0-0.5-0.1-0.6-0.2C6.6,8,6.6,7.9,6.8,7.8C7,7.7,7.7,7.4,8.2,7.3c0.5-0.1,2.2-0.1,2.6-0.1
		c0.4,0,1.3,0.2,1.5,0.3c0.2,0.1,0.5,0.1,0.4,0.3c0,0.2-0.6,0.4-0.6,0.4l0-0.4c0,0-0.3-0.2-1-0.3c-0.7,0-2.1-0.1-2.6,0
		C8.1,7.6,7.3,7.7,7.2,7.9C7.1,8,7.2,8.3,7.2,8.3z"/>
	<path class="st2" d="M7.2,7.9l0,1l5,0.2l0-1.4c0,0-1.6-0.3-2.1-0.3c-0.5,0-1.9,0.1-2.3,0.2C7.4,7.7,7.2,7.9,7.2,7.9z"/>
	<polygon class="st0" points="7.3,7.9 7.3,8.7 7.5,8.6 7.5,7.9 	"/>
	<polygon class="st0" points="7.7,7.8 7.7,8.6 8.1,8.6 8.1,7.7 	"/>
	<polygon class="st0" points="8.4,7.6 8.4,8.6 9,8.5 9,7.6 	"/>
	<rect x="9.4" y="7.6" class="st0" width="0.7" height="1"/>
	<polygon class="st0" points="10.4,7.6 10.4,8.5 11,8.6 11,7.6 	"/>
	<polygon class="st2" points="7.2,9.5 7.1,11.4 12.4,11.4 12.2,9.2 	"/>
	<polygon class="st0" points="11.3,7.6 11.3,8.6 11.7,8.7 11.7,7.7 	"/>
	<polygon class="st0" points="11.9,7.8 11.9,8.7 12.1,8.8 12.1,7.9 	"/>
	<path class="st3" d="M7.2,8.8c0,0,0.8-0.3,1.1-0.3c0.3,0,1.4-0.1,1.8-0.1c0.4,0,1.3,0.1,1.5,0.1c0.3,0,0.6,0.2,0.6,0.2l0,1
		c0,0-1.4-0.2-2.2-0.2c-0.8,0-1.5,0.1-1.9,0.1c-0.4,0-0.9,0.1-0.9,0.1L7.2,8.8z"/>
	<path class="st0" d="M7,9.1c0,0,0-0.3,0.1-0.3S7.1,9.1,7,9.1c0.1,0,0.2,0,0.2,0.1c0,0.1-0.3,0.1-0.3,0.1S6.9,9.3,7,9.1
		C6.9,9.1,7,9.1,7,9.1z"/>
	<path class="st0" d="M12.3,9.1c0,0,0-0.3,0.1-0.3C12.4,8.8,12.4,9.1,12.3,9.1c0.1,0,0.2,0,0.2,0.1c0,0.1-0.3,0.1-0.3,0.1
		S12.2,9.2,12.3,9.1C12.3,9.1,12.3,9.1,12.3,9.1z"/>
	<path class="st2" d="M6.5,10c0,0,0.1-0.5,0.2-0.6c0,0,0.1,0,0.1-0.1c0.2-0.1,0.4-0.1,0.5,0.1c0.1,0.2,0.2,0.7,0.2,0.7l-1,0V10z"/>
	<polygon class="st1" points="6.1,10 7.8,10 7.9,10.3 6.2,10.3 	"/>
	<polygon class="st3" points="6.5,10.2 6.5,11.2 6.8,11.2 6.8,10.2 	"/>
	<polygon class="st3" points="7.2,10.2 7.2,11.3 7.6,11.2 7.6,10.2 	"/>
	<path class="st2" d="M11.9,9.9c0,0,0-0.4,0.2-0.6s0.2-0.2,0.3-0.1s0.3,0.1,0.4,0.3C12.9,9.8,13,10,13,10L11.9,9.9z"/>
	<polygon class="st1" points="11.7,10 11.5,10.3 13.2,10.2 13.3,9.9 	"/>
	<rect x="11.9" y="10.1" class="st3" width="0.3" height="1"/>
	<polygon class="st0" points="9.6,10.4 9.6,11.3 9.9,11.3 9.9,10.4 	"/>
	<polygon class="st3" points="12.6,10.2 12.6,11.1 12.9,11.1 12.9,10.1 12.6,10.1 	"/>
	<polygon class="st3" points="6.4,11.1 6.4,12.2 13.1,12.1 13.1,11.1 	"/>
	<rect x="9.7" y="9.8" class="st4" width="0.1" height="2.3"/>
	<path class="st5" d="M9.8,10.4c0,0,0.2,0,0.4,0c0.1,0,0.4,0,0.5,0c0.1,0,0.2,0.1,0.2,0.1l0-0.2c0,0-0.2-0.1-0.3-0.1
		s-0.5-0.1-0.7-0.1c-0.1,0-0.2,0-0.2,0L9.8,10.4L9.8,10.4z"/>
	<path class="st6" d="M9.8,10.6c0,0,0.3-0.1,0.4,0c0.1,0,0.5,0.1,0.5,0.1c0.1,0,0.2,0,0.2,0s0-0.1,0-0.1c0-0.1,0-0.1,0-0.1
		s-0.1-0.1-0.2-0.1c-0.1,0-0.3-0.1-0.5-0.1c-0.2,0-0.4,0.1-0.4,0.1V10.6z"/>
	<path class="st7" d="M9.8,9.9c0,0,0.2,0.1,0.4,0.1c0.1,0,0.4,0.1,0.5,0.1c0.1,0,0.2,0,0.2,0v0.2c0,0-0.1,0-0.3-0.1s-0.5,0-0.6,0
		c-0.1,0-0.2,0-0.2,0V9.9z"/>
	<path class="st8" d="M10.4,10.2c0,0-0.1,0-0.1,0.1c0,0.1,0.1,0.1,0.2,0.1c0-0.1,0-0.1,0-0.1C10.4,10.1,10.4,10.2,10.4,10.2z"/>
	<g>
		<g>
			<polygon class="st5" points="10.3,10.2 10.4,10.3 10.3,10.2 			"/>
		</g>
		<g>
			<polygon class="st5" points="10.3,10.3 10.4,10.3 10.3,10.3 			"/>
		</g>
		<g>
			<polygon class="st5" points="10.3,10.3 10.4,10.3 10.3,10.3 			"/>
		</g>
		<g>
			<polygon class="st5" points="10.4,10.3 10.4,10.3 10.4,10.3 			"/>
		</g>
		<g>
			<polygon class="st5" points="10.4,10.3 10.4,10.3 10.4,10.3 			"/>
		</g>
		<g>
			<polygon class="st5" points="10.5,10.3 10.4,10.3 10.4,10.3 			"/>
		</g>
		<g>
			<polygon class="st5" points="10.5,10.3 10.4,10.3 10.5,10.3 			"/>
		</g>
		<g>
			<polygon class="st5" points="10.5,10.3 10.4,10.3 10.5,10.3 			"/>
		</g>
		<g>
			<polygon class="st5" points="10.5,10.2 10.4,10.3 10.5,10.2 			"/>
		</g>
		<g>
			<polygon class="st5" points="10.5,10.2 10.4,10.3 10.5,10.2 			"/>
		</g>
		<g>
			<polygon class="st5" points="10.4,10.2 10.4,10.3 10.4,10.2 			"/>
		</g>
		<g>
			<polygon class="st5" points="10.4,10.2 10.4,10.3 10.4,10.2 			"/>
		</g>
		<g>
			<polygon class="st5" points="10.3,10.2 10.4,10.3 10.4,10.2 			"/>
		</g>
	</g>
	<polygon class="st2" points="1.7,12.2 18.2,12 18.2,16.8 1.7,17 	"/>
	<rect x="1.8" y="12.6" class="st3" width="16.2" height="0.3"/>
	<g>
		<polygon class="st9" points="1.6,13.2 18.4,13.1 18.4,12.7 1.6,12.7 		"/>
		<polygon class="st9" points="2.6,13.2 2.6,16.1 2.9,16.1 2.9,13.1 		"/>
		<polygon class="st9" points="4.2,13 4.2,16 4.5,16 4.5,13 		"/>
		<polygon class="st9" points="5.6,13 5.6,16.1 6,16 5.9,12.9 		"/>
		<rect x="7" y="13" class="st9" width="0.3" height="3"/>
		<polygon class="st9" points="8.9,13 9,16 9.3,16 9.3,13 		"/>
		<polygon class="st9" points="10.4,13 10.3,16.1 10.7,16.1 10.6,13 		"/>
		<polygon class="st9" points="11.8,13 11.8,16.2 12.2,16.2 12.1,13 		"/>
		<polygon class="st9" points="13.7,13 13.7,16.3 14.1,16.1 14,12.9 		"/>
		<polygon class="st9" points="14.9,12.9 14.9,16.3 15.3,16.2 15.3,12.9 		"/>
		<polygon class="st9" points="16.7,12.9 16.7,16.1 16.4,16 16.4,13 		"/>
	</g>
	<g>
		<polygon class="st0" points="3.4,14.6 3.4,15.7 4.2,15.7 4.2,14.6 		"/>
		<polygon class="st0" points="4.8,14.6 5.6,14.6 5.6,15.9 4.8,15.9 		"/>
		<polygon class="st0" points="6.2,14.6 6.2,15.9 6.9,15.9 6.9,14.6 		"/>
		<polygon class="st0" points="8,14.5 8,16.1 8.7,16 8.7,14.5 		"/>
		<polygon class="st0" points="9.4,14.4 9.4,15.9 10.2,15.9 10.2,14.4 		"/>
		<polygon class="st0" points="10.8,14.5 10.8,15.9 11.6,15.9 11.6,14.5 		"/>
		<polygon class="st0" points="12.6,14.6 12.7,15.9 13.4,15.9 13.3,14.5 		"/>
		<polygon class="st0" points="14,14.5 14,15.9 14.7,15.9 14.7,14.6 		"/>
		<polygon class="st0" points="15.4,14.6 15.4,15.9 16,15.9 16,14.5 		"/>
		<polygon class="st0" points="15.5,13.8 15.5,14.3 16,14.2 16,13.8 		"/>
		<polygon class="st0" points="14.1,13.8 14.1,14.3 14.6,14.3 14.6,13.8 		"/>
		<rect x="12.7" y="13.8" class="st0" width="0.6" height="0.5"/>
		<polygon class="st0" points="9.5,13.7 9.6,14.1 10,14.1 10,13.7 		"/>
		<rect x="6.3" y="13.8" class="st0" width="0.5" height="0.4"/>
		<polygon class="st0" points="4.9,13.8 4.9,14.2 5.4,14.2 5.4,13.8 		"/>
		<polygon class="st0" points="3.5,13.8 3.5,14.3 4,14.3 4,13.8 		"/>
	</g>
	<polygon class="st1" points="1.6,15.5 18.2,15.5 18.2,16.8 1.6,17 	"/>
</g>
</svg>
